HIERARCHY
ROOT Hips
{
	OFFSET 0.00000 0.00000 0.00000
	CHANNELS 6 Xposition Yposition Zposition Yrotation Zrotation Xrotation 
	JOINT Lumbar
	{
		OFFSET 0 0 0
		CHANNELS 3 Zrotation Xrotation Yrotation
		JOINT Neck
		{
			OFFSET 0.00 0.2701 0.00
			CHANNELS 3 Zrotation Xrotation Yrotation
			End Site
			{
				OFFSET 0.00 0.1379 0.00
			}
		}
		JOINT RightShoulder
		{
			OFFSET 0.0119 0.2289 0.1181
			CHANNELS 3 Zrotation Xrotation Yrotation
			JOINT RightElbow
			{
				OFFSET 0.00 -0.1475 0.00
				CHANNELS 2 Zrotation Yrotation
				JOINT RightWrist
				{
					OFFSET 0.00 -0.1605 0.00
					CHANNELS 2 Zrotation Xrotation
					End Site
					{
						OFFSET 0.0040 -0.1068 0.0006
					}
				}
			}
		}
		JOINT LeftShoulder
		{
			OFFSET 0.0119 0.2289 -0.1181
			CHANNELS 3 Zrotation Xrotation Yrotation
			JOINT LeftElbow
			{
				OFFSET 0.00 -0.1475 0.00
				CHANNELS 2 Zrotation Yrotation
				JOINT LeftWrist
				{
					OFFSET 0.00 -0.1605 0.00
					CHANNELS 2 Zrotation Xrotation
					End Site
					{
						OFFSET 0.0040 -0.1068 -0.0006
					}
				}
			}
		}
	}
	JOINT RightHip
	{
		OFFSET 0.0316 -0.0424 0.0458
		CHANNELS 3 Zrotation Xrotation Yrotation
		JOINT RightKnee
		{
			OFFSET 0.00 -0.2438 0.00
			CHANNELS 1 Zrotation
			JOINT RightAnkle
			{
				OFFSET 0.00 -0.2449 0.00
				CHANNELS 3 Zrotation Xrotation Yrotation
				End Site
				{
					OFFSET 0.1237 -0.0542 0.0051
				}
			}
		}
	}
	JOINT LeftHip
	{
		OFFSET 0.0316 -0.0424 -0.0458
		CHANNELS 3 Zrotation Xrotation Yrotation
		JOINT LeftKnee
		{
			OFFSET 0.00 -0.2438 0.00
			CHANNELS 1 Zrotation
			JOINT LeftAnkle
			{
				OFFSET 0.00 -0.2449 0.00
				CHANNELS 3 Zrotation Xrotation Yrotation
				End Site
				{
					OFFSET 0.1237 -0.0542 -0.0051
				}
			}
		}
	}
}
MOTION
Frames: 31
Frame Time: 0.02
1e-05 7e-05 0.00012 172.01331 -45.65537 0.66571 56.16336 2.2326 3.54927 -7.12643 -6.88768 -0.2927 139.21433 -72.85407 -85.69799 12.75052 106.44099 16.88907 1.73939 123.32361 76.06203 89.9979 8.92764 -101.8773 13.96258 -1.60796 50.98312 -0.97572 -8.23987 -19.1626 -7.7808 -4.79756 -3.26768 54.54101 1.25486 1.64849 -24.14614 -9.83999 5.72155 3.89168
-1e-05 6e-05 6e-05 172.13814 -45.65529 0.68114 56.12619 2.20214 3.5353 -7.06687 -6.86409 -0.29287 138.76042 -72.80937 -86.11311 12.74478 106.42992 16.7771 1.62465 123.05318 75.97367 89.99923 8.89559 -101.78727 13.87463 -1.44255 50.96875 -0.98138 -8.27577 -19.1628 -7.78644 -4.80667 -3.2726 54.54988 1.30201 1.87485 -24.15083 -9.8007 5.70003 3.87686
-3e-05 5e-05 -0 172.26268 -45.65524 0.69653 56.08913 2.17174 3.52141 -7.00746 -6.84051 -0.29304 138.30756 -72.76479 -86.52699 12.73904 106.41891 16.66535 1.51016 122.7834 75.88558 90.00057 8.86359 -101.69752 13.78682 -1.27766 50.95444 -0.987 -8.31148 -19.16299 -7.79207 -4.81576 -3.27751 54.55875 1.34914 2.10102 -24.1555 -9.76149 5.67855 3.86205
-5e-05 3e-05 -6e-05 172.38714 -45.65516 0.71192 56.05207 2.14137 3.5075 -6.94808 -6.81698 -0.2932 137.85498 -72.72022 -86.94084 12.73331 106.40788 16.5537 1.39575 122.51377 75.79749 90.0019 8.83163 -101.60778 13.69914 -1.11277 50.94011 -0.99263 -8.34726 -19.16319 -7.79769 -4.82485 -3.28241 54.5676 1.39616 2.32678 -24.16017 -9.72232 5.65709 3.84726
-7e-05 2e-05 -0.00013 172.51185 -45.65504 0.72735 56.01493 2.11094 3.49348 -6.88857 -6.79347 -0.29337 137.40152 -72.67553 -87.35591 12.72758 106.39678 16.44186 1.28113 122.24356 75.70915 90.00323 8.79965 -101.51774 13.61134 -0.94735 50.92572 -0.99832 -8.38328 -19.1634 -7.80332 -4.83394 -3.28732 54.57645 1.44317 2.55253 -24.16487 -9.68309 5.6356 3.83247
-9e-05 1e-05 -0.00019 172.63602 -45.65514 0.74266 55.97802 2.08062 3.47986 -6.82938 -6.76972 -0.29354 136.94998 -72.63118 -87.76725 12.72184 106.38596 16.33032 1.16694 121.97469 75.62157 90.00456 8.76761 -101.4286 13.5235 -0.78355 50.91158 -1.0038 -8.41834 -19.16356 -7.80896 -4.84304 -3.29223 54.58536 1.49053 2.77954 -24.16949 -9.64392 5.61413 3.81765
-0.00011 0 -0.00025 172.76115 -45.65479 0.75819 55.94067 2.05012 3.46547 -6.7696 -6.74649 -0.2937 136.49499 -72.58621 -88.18564 12.71614 106.37461 16.21831 1.052 121.70344 75.53255 90.0059 8.7357 -101.3378 13.43591 -0.61673 50.89693 -1.00969 -8.45528 -19.16382 -7.81456 -4.85212 -3.29713 54.59412 1.53715 3.00383 -24.17425 -9.60468 5.59264 3.80288
-0.00013 -1e-05 -0.00031 172.88539 -45.65487 0.77352 55.90374 2.01979 3.45179 -6.71039 -6.72278 -0.29387 136.04334 -72.54179 -88.59755 12.71038 106.36371 16.10669 0.93773 121.43435 75.44488 90.00723 8.70372 -101.24842 13.34795 -0.45259 50.88277 -1.01521 -8.49049 -19.16399 -7.8202 -4.86122 -3.30204 54.60304 1.58442 3.23051 -24.17888 -9.5655 5.57117 3.78807
-0.00015 -2e-05 -0.00037 173.00861 -45.65542 0.7886 55.86728 1.98964 3.43898 -6.65176 -6.69844 -0.29404 135.5949 -72.49809 -89.00162 12.7046 106.3535 15.99568 0.82431 121.16787 75.35872 90.00853 8.67146 -101.16121 13.26004 -0.29208 50.86915 -1.02024 -8.52359 -19.16404 -7.82591 -4.87036 -3.30697 54.61209 1.63262 3.46077 -24.18337 -9.52637 5.54972 3.77318
-0.00017 -3e-05 -0.00044 173.13791 -45.65312 0.80509 55.82797 1.95835 3.42117 -6.58942 -6.67762 -0.2942 135.12532 -72.45041 -89.45106 12.69911 106.33975 15.88153 0.70612 120.88627 75.26344 90.00998 8.6402 -101.06281 13.17336 -0.11175 50.85226 -1.02798 -8.56881 -19.16475 -7.83126 -4.87928 -3.31183 54.6202 1.67591 3.67244 -24.18871 -9.48689 5.52816 3.75868
-0.00019 -4e-05 -0.0005 173.25424 -45.65691 0.81865 55.79475 1.92952 3.41389 -6.53514 -6.64945 -0.29438 134.70211 -72.41103 -89.80456 12.69289 106.33316 15.77381 0.59791 120.63669 75.18771 90.0111 8.60723 -100.9872 13.08314 0.02742 50.84237 -1.03005 -8.58849 -19.16408 -7.83734 -4.88865 -3.3168 54.6304 1.72923 3.92197 -24.19224 -9.44818 5.50682 3.74339
-0.00024 -5e-05 -0.00055 173.3358 -45.67701 0.82378 55.77794 1.90716 3.43593 -6.50124 -6.60024 -0.29465 134.39268 -72.39539 -89.89396 12.68541 106.34881 15.68516 0.51781 120.47488 75.16347 90.01132 8.56624 -100.98032 12.9904 0.0472 50.85114 -1.016 -8.5372 -19.15955 -7.8457 -4.89956 -3.32221 54.64558 1.81319 4.28784 -24.19077 -9.41148 5.48622 3.72566
-0.0003 -5e-05 -0.0006 173.40417 -45.70331 0.82607 55.76733 1.88731 3.46843 -6.47576 -6.54383 -0.29494 134.13234 -72.38791 -89.88707 12.67702 106.37097 15.6025 0.4475 120.3453 75.15927 90.0112 8.52418 -100.99442 12.8925 0.02688 50.86705 -0.99636 -8.46045 -19.15364 -7.85476 -4.91088 -3.32771 54.663 1.90664 4.68945 -24.18747 -9.37558 5.46584 3.70719
-0.00036 -5e-05 -0.00065 173.47803 -45.72708 0.82995 55.75405 1.86648 3.49594 -6.44752 -6.49126 -0.29521 133.85824 -72.37607 -89.92496 12.66856 106.38872 15.51641 0.37234 120.20097 75.14729 90.01124 8.48476 -100.99587 12.79259 0.02907 50.88011 -0.97961 -8.39592 -19.1484 -7.86332 -4.92177 -3.33306 54.67991 1.99371 5.06654 -24.18503 -9.33937 5.44526 3.68923
-0.00041 -5e-05 -0.00071 173.554 -45.74966 0.83255 55.74009 1.84496 3.52464 -6.41473 -6.4362 -0.29551 133.54792 -72.367 -89.95885 12.6622 106.41343 15.43415 0.29927 120.05688 75.12971 90.01127 8.43612 -101.01367 12.71219 0.01296 50.89156 -0.96134 -8.32853 -19.14301 -7.87258 -4.93362 -3.33883 54.69469 2.0895 5.47853 -24.18247 -9.30291 5.42505 3.67049
-0.00047 -5e-05 -0.00075 173.62244 -45.77618 0.83716 55.7291 1.82548 3.55316 -6.39351 -6.38476 -0.29575 133.32494 -72.35408 -89.97763 12.65116 106.42417 15.34431 0.2237 119.92026 75.12858 90.01123 8.4066 -100.99841 12.58854 0.02562 50.908 -0.94496 -8.26113 -19.13757 -7.8806 -4.94364 -3.34377 54.7144 2.16937 5.82644 -24.17974 -9.26721 5.40417 3.65322
-0.00055 -4e-05 -0.00075 173.67351 -45.81202 0.84776 55.72398 1.81105 3.58011 -6.4013 -6.34396 -0.29585 133.32846 -72.32878 -89.98387 12.62842 106.40063 15.24065 0.14308 119.79323 75.1674 90.01104 8.4285 -100.92194 12.3586 0.12682 50.93691 -0.93486 -8.19946 -19.13258 -7.88457 -4.94798 -3.34614 54.74763 2.203 5.98712 -24.17703 -9.23286 5.38095 3.64001
-0.00062 -2e-05 -0.00073 173.71738 -45.85161 0.86051 55.72181 1.79858 3.60627 -6.42062 -6.30724 -0.29589 133.41847 -72.29934 -89.97722 12.60086 106.35986 15.12754 0.05914 119.67304 75.22214 90.01079 8.46993 -100.8058 12.08319 0.25879 50.97049 -0.92693 -8.13874 -19.12756 -7.88733 -4.95055 -3.34771 54.78564 2.22023 6.08216 -24.17422 -9.19937 5.35713 3.62833
-0.0007 0 -0.00072 173.76452 -45.8895 0.87245 55.7188 1.78522 3.63179 -6.43523 -6.26942 -0.29593 133.47081 -72.27161 -89.97281 12.57484 106.32542 15.01311 -0.02651 119.55197 75.26998 90.01059 8.50354 -100.68355 11.82072 0.3768 51.00165 -0.91826 -8.07792 -19.1224 -7.89096 -4.95428 -3.34983 54.82118 2.24497 6.20853 -24.17145 -9.16582 5.33384 3.61603
-0.00077 2e-05 -0.00071 173.81147 -45.9276 0.88367 55.71384 1.77197 3.66179 -6.4479 -6.22826 -0.29609 133.51865 -72.24472 -89.9803 12.55142 106.30507 14.92258 -0.09963 119.42321 75.31721 90.01031 8.53285 -100.66017 11.59032 0.49218 51.03436 -0.90839 -8.01486 -19.11779 -7.8933 -4.95656 -3.35119 54.85812 2.26993 6.33066 -24.16864 -9.13084 5.30939 3.60332
-0.00086 4e-05 -0.0007 173.85698 -45.96604 0.89685 55.71364 1.75891 3.68225 -6.46726 -6.195 -0.29598 133.59491 -72.21519 -89.96125 12.52159 106.24176 14.77997 -0.19801 119.31093 75.36911 90.01016 8.57552 -100.42592 11.28286 0.62229 51.06481 -0.90154 -7.95693 -19.11207 -7.89796 -4.96137 -3.35392 54.89317 2.29024 6.44452 -24.16592 -9.09913 5.2873 3.59191
-0.00102 5e-05 -0.00067 173.90304 -46.00474 0.91577 55.72522 1.74589 3.67537 -6.50211 -6.18356 -0.29507 133.7348 -72.17785 -89.87185 12.47387 106.14781 14.49542 -0.38155 119.24857 75.43101 90.01035 8.65236 -99.57756 10.76933 0.77362 51.08827 -0.90314 -7.91434 -19.10317 -7.90989 -4.97412 -3.36094 54.92248 2.30319 6.56046 -24.16344 -9.0753 5.27107 3.58324
-0.00119 6e-05 -0.00063 173.94749 -46.04355 0.93644 55.74157 1.73296 3.65902 -6.5433 -6.17972 -0.29389 133.89831 -72.13833 -89.75662 12.42003 105.99765 14.15866 -0.58824 119.2011 75.49677 90.01062 8.74151 -98.52572 10.18038 0.94121 51.10918 -0.90763 -7.87694 -19.0932 -7.92408 -4.98936 -3.36931 54.94957 2.31175 6.66858 -24.16107 -9.05489 5.25736 3.57593
-0.00136 7e-05 -0.0006 173.99093 -46.08214 0.95579 55.75614 1.72002 3.64784 -6.58169 -6.17185 -0.29286 134.04735 -72.10067 -89.654 12.37003 105.8156 13.84632 -0.77267 119.1429 75.56004 90.01094 8.82373 -97.59456 9.62924 1.10931 51.13097 -0.91036 -7.8361 -19.08377 -7.93688 -5.00311 -3.37691 54.97725 2.32129 6.7742 -24.15866 -9.03352 5.243 3.56833
-0.00152 8e-05 -0.00057 174.04138 -46.12166 0.97746 55.76922 1.70713 3.63325 -6.62014 -6.1668 -0.29171 134.21756 -72.05883 -89.54764 12.3158 105.86683 13.53151 -1.00335 119.10242 75.62706 90.01111 8.91255 -96.54412 9.06277 1.24486 51.15413 -0.91494 -7.79903 -19.07401 -7.9512 -5.01831 -3.38518 55.00694 2.33444 6.90282 -24.15615 -9.00969 5.22652 3.5594
-0.0017 8e-05 -0.00054 174.07704 -46.15913 0.99467 55.78644 1.69398 3.62319 -6.65982 -6.15734 -0.29076 134.34522 -72.02568 -89.44256 12.26846 105.42987 13.20859 -1.14747 119.02757 75.68689 90.01133 8.98997 -95.69282 8.50943 1.45197 51.17371 -0.91646 -7.75637 -19.06479 -7.96285 -5.03109 -3.39235 55.03177 2.33937 6.9829 -24.15394 -8.99176 5.21508 3.55354
-0.00194 8e-05 -0.00054 174.07116 -46.1915 0.9992 55.81422 1.68135 3.6308 -6.70166 -6.13587 -0.29037 134.36692 -72.01385 -89.35106 12.24522 103.5629 12.88447 -1.0094 118.85362 75.72696 90.01177 9.03455 -95.45055 8.02405 1.84949 51.18467 -0.90764 -7.68785 -19.05661 -7.96701 -5.03686 -3.39649 55.04418 2.32148 6.92735 -24.15216 -8.98949 5.21692 3.55596
-0.00219 7e-05 -0.00054 174.05052 -46.22159 0.99916 55.84583 1.66815 3.64271 -6.74456 -6.1091 -0.29023 134.3363 -72.01185 -89.26032 12.22782 101.22283 12.55237 -0.79004 118.63892 75.7597 90.01062 9.06615 -95.41149 7.55241 2.31844 51.19205 -0.89585 -7.6151 -19.04931 -7.96833 -5.04005 -3.3994 55.05162 2.29571 6.82395 -24.15076 -8.99304 5.22376 3.56141
-0.00244 6e-05 -0.00054 174.03761 -46.25241 1.00116 55.87562 1.65447 3.65088 -6.78653 -6.08367 -0.28997 134.32417 -72.00699 -89.16792 12.20627 99.16431 12.21862 -0.63294 118.45047 75.79459 90.01217 9.10342 -95.27689 7.06584 2.75726 51.20048 -0.88617 -7.55048 -19.04179 -7.97066 -5.04431 -3.40266 55.06107 2.27448 6.74541 -24.14947 -8.99371 5.22827 3.56536
-0.00269 5e-05 -0.00054 174.021 -46.28483 1.0034 55.90635 1.64419 3.66652 -6.83004 -6.06387 -0.28958 134.35579 -71.99367 -89.08348 12.19355 96.82974 11.90582 -0.37126 118.25338 75.83327 90.01201 9.14497 -95.15967 6.61262 3.1888 51.2109 -0.87335 -7.46041 -19.03269 -7.97426 -5.04922 -3.40691 55.07168 2.24928 6.65446 -24.147 -8.99525 5.23303 3.56982
-0.00293 4e-05 -0.00055 174.00775 -46.31298 1.004 55.93542 1.62633 3.6674 -6.87122 -6.02993 -0.2897 134.25774 -72.00233 -88.97879 12.16049 94.94991 11.54758 -0.30589 118.03496 75.86393 90.0067 9.17073 -95.04331 6.095 3.64978 51.21681 -0.86637 -7.42158 -19.02809 -7.97448 -5.05198 -3.40873 55.07849 2.23025 6.5768 -24.14708 -8.9966 5.23854 3.57401
